<svg width="24" height="24" viewBox="0 0 24 24" fill="none" xmlns="http://www.w3.org/2000/svg">
<mask id="mask0_2743_19" style="mask-type:alpha" maskUnits="userSpaceOnUse" x="0" y="0" width="24" height="24">
<rect width="24" height="24" fill="#D9D9D9"/>
</mask>
<g mask="url(#mask0_2743_19)">
<path d="M8.46775 23.087C6.35875 23.087 4.566 22.3415 3.0895 20.8505C1.61317 19.3597 0.875 17.5596 0.875 15.4503C0.875 13.3411 1.60875 11.5547 3.07625 10.091C4.54392 8.62752 6.33333 7.89577 8.4445 7.89577H8.69175L9.28325 6.86427C9.51508 6.44977 9.85792 6.18135 10.3118 6.05902C10.7656 5.93669 11.1998 5.99786 11.6143 6.24252L12.2088 6.57777L12.3217 6.38977C12.7251 5.64511 13.348 5.16144 14.1905 4.93877C15.033 4.71627 15.8246 4.81927 16.5652 5.24777L17.5357 5.80177L16.4283 7.71202L15.4575 7.15827C15.2482 7.03677 15.0219 7.01052 14.7788 7.07952C14.5358 7.14869 14.3535 7.28794 14.232 7.49727L14.119 7.68527L14.8977 8.13477C15.2956 8.36661 15.5567 8.70844 15.681 9.16027C15.8053 9.6121 15.7535 10.0389 15.5255 10.4408L14.9342 11.4913C15.3096 12.0953 15.5921 12.7348 15.7818 13.4098C15.9714 14.0848 16.0663 14.7806 16.0663 15.4973C16.0663 17.6056 15.3272 19.3976 13.849 20.8733C12.3707 22.3491 10.5769 23.087 8.46775 23.087ZM8.46925 20.8718C9.95092 20.8718 11.2183 20.3472 12.2715 19.298C13.3245 18.249 13.851 16.9825 13.851 15.4985C13.851 14.993 13.7812 14.4943 13.6415 14.0023C13.5018 13.5103 13.2943 13.0452 13.019 12.607L12.3333 11.5223L13.3593 9.76427L10.9625 8.38377L9.9425 10.136H8.74675C7.21592 10.136 5.88725 10.629 4.76075 11.615C3.63442 12.601 3.07125 13.8784 3.07125 15.4473C3.07125 16.9488 3.59633 18.2282 4.6465 19.2855C5.69683 20.343 6.97108 20.8718 8.46925 20.8718ZM20.024 9.17077V6.95552H23.2393V9.17077H20.024ZM14.2968 3.44352V0.228271H16.512V3.44352H14.2968ZM19.5483 5.47452L17.993 3.91902L20.2675 1.64452L21.8228 3.20002L19.5483 5.47452Z" fill="#1C1B1F"/>
</g>
</svg>
