<svg viewBox="0 0 24 24" fill="none" xmlns="http://www.w3.org/2000/svg">
<mask id="mask0_4460_258" style="mask-type:alpha" maskUnits="userSpaceOnUse" x="0" y="0" width="24" height="24">
<rect width="24" height="24" fill="#D9D9D9"/>
</mask>
<g mask="url(#mask0_4460_258)">
<path fill-rule="evenodd" clip-rule="evenodd" d="M12 3C15.3137 3 18 4.47746 18 6.3V17.7C18 19.5225 15.3137 21 12 21C8.68629 21 6 19.5225 6 17.7L6 6.3C6 4.47746 8.68629 3 12 3ZM16.2 6.3C16.2 6.29709 16.2 6.2866 16.1911 6.2626C16.1811 6.23588 16.1571 6.18496 16.1016 6.11279C15.9855 5.96179 15.7592 5.75496 15.3752 5.54374C14.6026 5.1188 13.4127 4.8 12 4.8C10.5873 4.8 9.39743 5.1188 8.62481 5.54374C8.24077 5.75496 8.0145 5.96179 7.89837 6.11279C7.84287 6.18496 7.81886 6.23588 7.80892 6.2626C7.79999 6.2866 7.8 6.29695 7.8 6.29986C7.8 6.30277 7.79999 6.3134 7.80892 6.3374C7.81886 6.36412 7.84287 6.41505 7.89837 6.48721C8.0145 6.63822 8.24077 6.84504 8.62481 7.05626C9.39743 7.4812 10.5873 7.8 12 7.8C13.4127 7.8 14.6026 7.4812 15.3752 7.05626C15.7592 6.84504 15.9855 6.63822 16.1016 6.48721C16.1571 6.41505 16.1811 6.36412 16.1911 6.3374C16.2 6.3134 16.2 6.30291 16.2 6.3ZM7.8 17.6999C7.8 17.7028 7.79999 17.7134 7.80892 17.7374C7.81886 17.7641 7.84287 17.815 7.89837 17.8872C8.0145 18.0382 8.24077 18.245 8.62481 18.4563C9.39743 18.8812 10.5873 19.2 12 19.2C13.4127 19.2 14.6026 18.8812 15.3752 18.4563C15.7592 18.245 15.9855 18.0382 16.1016 17.8872C16.1571 17.815 16.1811 17.7641 16.1911 17.7374C16.2 17.7134 16.2 17.7029 16.2 17.7V15.3433V8.65667C15.1177 9.2402 13.6353 9.6 12 9.6C10.3647 9.6 8.88225 9.2402 7.8 8.65667L7.8 15.3433L7.8 17.6999Z" fill="black"/>
</g>
</svg>
