<svg viewBox="0 0 24 24" fill="none" xmlns="http://www.w3.org/2000/svg">
<mask id="mask0_4460_264" style="mask-type:alpha" maskUnits="userSpaceOnUse" x="0" y="0" width="24" height="24">
<rect width="24" height="24" fill="#D9D9D9"/>
</mask>
<g mask="url(#mask0_4460_264)">
<path fill-rule="evenodd" clip-rule="evenodd" d="M12 19.2C15.9765 19.2 19.2 15.9765 19.2 12C19.2 8.02355 15.9765 4.8 12 4.8C8.02355 4.8 4.8 8.02355 4.8 12C4.8 15.9765 8.02355 19.2 12 19.2ZM12 21C16.9706 21 21 16.9706 21 12C21 7.02944 16.9706 3 12 3C7.02944 3 3 7.02944 3 12C3 16.9706 7.02944 21 12 21Z" fill="black"/>
<path fill-rule="evenodd" clip-rule="evenodd" d="M11.9876 6.52572C12.0698 7.01593 11.7391 7.47999 11.2489 7.56223C9.4507 7.86391 8.01172 9.23538 7.6115 10.9991C7.50151 11.4839 7.01939 11.7877 6.53466 11.6777C6.04992 11.5677 5.74613 11.0855 5.85613 10.6008C6.41704 8.12887 8.42876 6.21021 10.9511 5.78704C11.4413 5.7048 11.9054 6.03552 11.9876 6.52572Z" fill="black"/>
</g>
</svg>
